<svg width="17" height="15" viewBox="0 0 17 15" fill="none" xmlns="http://www.w3.org/2000/svg">
<path d="M15.6961 7.28142C15.4372 6.27859 14.9521 5.32643 14.2545 4.45128C13.5215 3.53796 12.6242 2.7817 11.5877 2.20412C10.5522 1.62755 9.45438 1.25229 8.32458 1.08847C7.19178 0.924656 6.10829 0.988494 5.10443 1.27864C4.6893 1.39854 4.25583 1.57722 3.81537 1.80994C2.67225 2.43143 1.8603 3.31739 1.40218 4.44351C0.945061 5.56895 0.877094 6.77511 1.20094 8.0289C1.45049 8.99559 1.94326 9.95214 2.66592 10.8719C3.39957 11.7859 4.29648 12.5418 5.33266 13.119C6.3675 13.6956 7.46899 14.0729 8.60678 14.2408C9.02259 14.3022 9.43639 14.3333 9.8372 14.3333C10.5315 14.3333 11.2049 14.2404 11.8389 14.057C12.2681 13.9331 12.6955 13.7561 13.1093 13.5311C14.2531 12.9096 15.0614 12.0213 15.5112 10.8901C15.9606 9.76164 16.023 8.54737 15.6961 7.28142ZM14.8582 10.5037C14.585 11.236 14.1622 11.8852 13.6008 12.4334C13.0407 12.9806 12.3467 13.3889 11.5391 13.6466C11.1406 13.7689 10.7075 13.8503 10.2513 13.8885C9.23315 13.9736 8.17998 13.8375 7.12115 13.4838C6.06098 13.1298 5.09177 12.5992 4.24051 11.9075C3.39191 11.2174 2.74421 10.4331 2.31508 9.57553C1.94626 8.85778 1.74002 8.05085 1.70204 7.17705C1.66772 6.37992 1.789 5.5963 2.06253 4.84849C2.34307 4.08277 2.76887 3.414 3.32794 2.86073C3.89467 2.30004 4.58501 1.8856 5.37864 1.62924C5.83042 1.4894 6.27688 1.40023 6.70535 1.36443C6.87926 1.3499 7.05785 1.34247 7.23609 1.34247C8.05471 1.34247 8.91597 1.4965 9.79522 1.79981C10.8434 2.1619 11.8063 2.69928 12.6572 3.39744C13.5058 4.09358 14.1538 4.88125 14.583 5.73817C14.9678 6.50726 15.182 7.33378 15.2193 8.19508C15.254 8.99289 15.1324 9.77009 14.8582 10.5037Z" fill="#384C43" stroke="#384C43"/>
<path d="M1.78425 4.13725L3.74503 2.17647L6.88228 1L11.196 2.17647L14.7254 5.70587L15.5097 10.4117L12.3725 13.549L8.4509 13.9412L3.35287 11.5882L1.39209 8.05881L1.78425 4.13725Z" fill="#384C43"/>
</svg>
