<svg width="16" height="15" viewBox="0 0 16 15" fill="none" xmlns="http://www.w3.org/2000/svg">
<path d="M15.2449 7.28142C14.9861 6.27859 14.501 5.32643 13.8033 4.45128C13.0703 3.53796 12.173 2.7817 11.1365 2.20412C10.101 1.62755 9.00321 1.25229 7.87341 1.08847C6.74061 0.924656 5.65712 0.988494 4.65326 1.27864C4.23812 1.39854 3.80466 1.57722 3.3642 1.80994C2.22107 2.43143 1.40912 3.31739 0.951007 4.44351C0.49389 5.56895 0.425922 6.77511 0.749769 8.0289C0.999318 8.99559 1.49209 9.95214 2.21474 10.8719C2.9484 11.7859 3.84531 12.5418 4.88149 13.119C5.91633 13.6956 7.01781 14.0729 8.15561 14.2408C8.57141 14.3022 8.98522 14.3333 9.38603 14.3333C10.0804 14.3333 10.7537 14.2404 11.3878 14.057C11.8169 13.9331 12.2443 13.7561 12.6582 13.5311C13.8019 12.9096 14.6102 12.0213 15.06 10.8901C15.5095 9.76164 15.5718 8.54737 15.2449 7.28142ZM14.407 10.5037C14.1338 11.236 13.711 11.8852 13.1496 12.4334C12.5895 12.9806 11.8955 13.3889 11.0879 13.6466C10.6894 13.7689 10.2563 13.8503 9.80017 13.8885C8.78198 13.9736 7.72881 13.8375 6.66998 13.4838C5.60981 13.1298 4.6406 12.5992 3.78934 11.9075C2.94074 11.2174 2.29304 10.4331 1.86391 9.57553C1.49508 8.85778 1.28885 8.05085 1.25087 7.17705C1.21655 6.37992 1.33782 5.5963 1.61136 4.84849C1.8919 4.08277 2.3177 3.414 2.87677 2.86073C3.4435 2.30004 4.13384 1.8856 4.92747 1.62924C5.37925 1.4894 5.82571 1.40023 6.25417 1.36443C6.42809 1.3499 6.60667 1.34247 6.78492 1.34247C7.60354 1.34247 8.4648 1.4965 9.34405 1.79981C10.3922 2.1619 11.3551 2.69928 12.206 3.39744C13.0546 4.09358 13.7027 4.88125 14.1318 5.73817C14.5166 6.50726 14.7308 7.33378 14.7682 8.19508C14.8028 8.99289 14.6812 9.77009 14.407 10.5037Z" fill="#384C43" stroke="#384C43"/>
</svg>
