<svg width="20" height="20" viewBox="0 0 20 20" fill="none" xmlns="http://www.w3.org/2000/svg">
<path d="M16.5579 6.2702L8.76187 14.8799C8.69282 14.9568 8.59883 15 8.50077 15C8.40272 15 8.30873 14.9568 8.23968 14.8799L4.27546 10.5019C4.20585 10.4257 4.16669 10.3219 4.16669 10.2136C4.16669 10.1053 4.20585 10.0015 4.27546 9.92525L4.7903 9.35669C4.85935 9.2798 4.95334 9.23656 5.05139 9.23656C5.14944 9.23656 5.24344 9.2798 5.31248 9.35669L8.4971 12.8737L15.5209 5.11683C15.6664 4.96106 15.8976 4.96106 16.0431 5.11683L16.5579 5.69352C16.6275 5.76977 16.6667 5.87357 16.6667 5.98186C16.6667 6.09014 16.6275 6.19395 16.5579 6.2702Z" fill="white"/>
</svg>
