<svg width="30" height="26" viewBox="0 0 30 26" fill="none" xmlns="http://www.w3.org/2000/svg">
<path d="M29.1023 12.2488C28.5896 10.2933 27.629 8.43655 26.2474 6.73C24.7959 4.94902 23.0191 3.47431 20.9665 2.34803C18.9159 1.22372 16.742 0.491966 14.5047 0.172523C12.2614 -0.146921 10.1158 -0.0224364 8.12789 0.54334C7.3058 0.77716 6.44743 1.12558 5.5752 1.57939C3.3115 2.7913 1.70362 4.51893 0.796424 6.71485C-0.108793 8.90946 -0.243388 11.2615 0.397917 13.7064C0.892092 15.5914 1.8679 17.4567 3.29897 19.2502C4.7518 21.0325 6.52792 22.5065 8.57984 23.6322C10.6291 24.7565 12.8103 25.4922 15.0635 25.8195C15.8869 25.9394 16.7063 26 17.5 26C18.875 26 20.2084 25.8189 21.464 25.4612C22.3138 25.2195 23.1603 24.8744 23.9797 24.4357C26.2448 23.2238 27.8454 21.4916 28.7361 19.2858C29.6261 17.0852 29.7488 14.7174 29.1016 12.2488H29.1023ZM27.4429 18.5323C26.9019 19.9602 26.0646 21.2261 24.9529 22.2951C23.8438 23.3621 22.4695 24.1584 20.8702 24.661C20.0811 24.8994 19.2234 25.0581 18.3202 25.1326C16.3039 25.2985 14.2183 25.0331 12.1215 24.3435C10.0221 23.6532 8.10282 22.6185 6.41708 21.2696C4.73662 19.924 3.45401 18.3946 2.60422 16.7223C1.87384 15.3227 1.46544 13.7492 1.39022 12.0453C1.32227 10.4909 1.56243 8.96281 2.10411 7.50457C2.65964 6.01142 3.50284 4.7073 4.60995 3.62844C5.73223 2.53509 7.09929 1.72693 8.67089 1.22701C9.56555 0.954335 10.4497 0.780453 11.2981 0.710636C11.6425 0.682315 11.9962 0.667824 12.3492 0.667824C13.9702 0.667824 15.6758 0.968167 17.4169 1.55963C19.4926 2.2657 21.3993 3.3136 23.0844 4.67503C24.7649 6.03249 26.0481 7.56846 26.8979 9.23944C27.66 10.7392 28.0842 12.3509 28.1581 14.0304C28.2267 15.5862 27.9859 17.101 27.4429 18.5316V18.5323Z" fill="white"/>
<path d="M20.6314 18.7463L15.9767 12.6328L19.6859 9.19133C19.9894 8.91207 20.1959 8.72831 20.3068 8.64137C20.4176 8.55377 20.5747 8.47868 20.7792 8.41413C20.9831 8.35024 21.2661 8.31204 21.6277 8.30085V7.95176H17.8649V8.29755H17.8656V8.30085C18.6705 8.3127 19.073 8.46946 19.073 8.77244C19.073 8.93578 18.9622 9.11625 18.7405 9.31384L13.8937 13.8203V12.069L16.5117 7.18115C16.6516 6.92493 16.8357 6.72998 17.0627 6.59627C17.2467 6.48825 17.4915 6.40065 17.7944 6.33413V5.94092H14.4473V6.06343V6.29066C14.9256 6.32557 15.27 6.40131 15.4798 6.51789C15.6897 6.63447 15.7946 6.79716 15.7946 7.00727C15.7946 7.21737 15.6883 7.52694 15.4785 7.95176H11.0065V8.30085C11.6129 8.32456 12.0444 8.43192 12.301 8.62424C12.5577 8.81657 12.6857 9.16301 12.6857 9.66358V13.2769L11.1919 16.1249L9.45936 7.9847C9.41252 7.7871 9.38942 7.58292 9.38942 7.37347C9.38942 7.03559 9.51214 6.7886 9.75692 6.63118C10.0017 6.47376 10.4451 6.36048 11.087 6.29066V5.94158H6.85455V6.29066C7.19302 6.33742 7.44638 6.42766 7.61594 6.56136C7.78484 6.69573 7.90492 6.90781 7.97486 7.19893L10.2458 17.732L10.2722 17.8519H10.7974L10.8621 17.732L12.6877 14.3235V18.1357C12.6877 18.6482 12.559 19.0005 12.303 19.1922C12.0464 19.3845 11.6149 19.4919 11.0085 19.5156V19.8627H15.5405V19.5156C14.9454 19.4926 14.5225 19.3878 14.2718 19.2014C14.0211 19.015 13.8957 18.66 13.8957 18.1357V14.5725L15.0853 13.4547L19.6529 19.4893L19.934 19.8634H22.0842V19.5163C21.8507 19.5163 21.6033 19.455 21.3407 19.3332C21.0781 19.2107 20.8419 19.0164 20.6321 18.7483L20.6314 18.7463ZM13.8951 9.66293C13.8951 9.18541 14.0112 8.84489 14.2447 8.64137C14.4453 8.46617 14.7943 8.35749 15.2892 8.31599L13.8944 10.9749V9.66358L13.8951 9.66293Z" fill="white"/>
</svg>
