<svg width="128" height="42" viewBox="0 0 128 42" fill="none" xmlns="http://www.w3.org/2000/svg">
<g clip-path="url(#clip0_102_828)">
<path d="M125.144 40.129C124.136 39.6979 123.229 39.0103 122.423 38.066L104.544 16.5073L118.794 4.3739C119.959 3.38856 120.754 2.74194 121.179 2.43402C121.605 2.1261 122.21 1.85924 122.994 1.63343C123.778 1.40762 124.864 1.27419 126.253 1.23314V1.21994V0H111.8V1.21994H111.803V1.23314C114.895 1.27419 116.44 1.82845 116.44 2.89589C116.44 3.47067 116.015 4.10704 115.163 4.80499L96.5458 20.6965V6.03666C96.5458 4.35337 96.9938 3.15249 97.8898 2.43402C98.7858 1.71554 100.443 1.31525 102.863 1.23314V0.431085V0H85.4546V1.21994V1.23314C87.7842 1.31525 89.4418 1.69501 90.4274 2.37243C91.413 3.04985 91.9058 4.27273 91.9058 6.03812V35.9091C91.9058 37.717 91.4114 38.9575 90.4274 39.6349C89.4418 40.3123 87.7826 40.6921 85.4546 40.7742V41.9985H102.863V40.7742C100.578 40.6921 98.9522 40.3226 97.9906 39.6657C97.0258 39.0088 96.5458 37.7566 96.5458 35.9076V23.3416L101.115 19.4003L118.659 40.6804L119.739 41.9985H128V40.7742C127.103 40.7742 126.152 40.5587 125.144 40.1276V40.129Z" fill="white"/>
<path d="M60.344 0H29.1712V0.431085V1.23167C31.008 1.35484 32.3296 1.62317 33.1376 2.03226C33.944 2.44282 34.3472 3.0176 34.3472 3.7566C34.3472 4.4956 33.9216 5.64663 33.0704 7.20528L16.6688 35.9091L10.0144 7.20674C9.8352 6.5088 9.7456 5.79032 9.7456 5.05132C9.7456 3.8607 10.216 2.98827 11.1568 2.43402C12.0976 1.87977 13.8 1.47947 16.2656 1.23314V0H0V1.23167C1.2992 1.39589 2.2736 1.71554 2.9232 2.18622C3.5728 2.65836 4.032 3.40909 4.3008 4.43402L13.0224 41.5762L13.1232 42H15.1408L15.3888 41.5762H15.3904L37.1008 4.3739C37.6384 3.47067 38.344 2.78299 39.2176 2.31085C39.9248 1.92962 40.864 1.6217 42.0272 1.3871C42.9296 1.2478 44.4512 1.15689 46.4224 1.59238V1.58651C47.1776 1.76979 47.7872 2.02053 48.2448 2.34018C49.1856 2.99707 49.656 4.23021 49.656 6.03519V35.9091C49.656 37.7566 49.1968 39.0103 48.2784 39.6672C47.36 40.324 45.7792 40.6935 43.5392 40.7757V42H60.3424V40.7757C58.1008 40.6935 56.5328 40.324 55.6368 39.6672C54.7408 39.0103 54.2928 37.7581 54.2928 35.9091V6.03666C54.2928 4.23021 54.752 2.99853 55.6704 2.34164C56.5888 1.68475 58.1456 1.31525 60.3424 1.23314V0.431085V0H60.344Z" fill="white"/>
<path d="M64.4977 1.21994V1.23314C66.6929 1.31525 68.2609 1.68475 69.2017 2.34164C70.1425 2.99853 70.6129 4.23167 70.6129 6.03666V35.9091C70.6129 37.7566 70.1537 39.0103 69.2353 39.6672C68.3169 40.324 66.7361 40.6935 64.4961 40.7757V42H81.2993V40.7757C79.0577 40.6935 77.4897 40.324 76.5937 39.6672C75.6977 39.0103 75.2497 37.7581 75.2497 35.9091V6.03666C75.2497 4.23021 75.7089 2.99853 76.6273 2.34164C77.5457 1.68475 79.1025 1.31525 81.2993 1.23314V0H64.4961V1.21994H64.4977Z" fill="white"/>
</g>
<defs>
<clipPath id="clip0_102_828">
<rect width="128" height="42" fill="white"/>
</clipPath>
</defs>
</svg>
