<svg width="15" height="16" viewBox="0 0 15 16" fill="none" xmlns="http://www.w3.org/2000/svg">
<path d="M6.63179 2.43682C6.78392 1.96858 7.44635 1.96858 7.59849 2.43682L8.59848 5.51448C8.66652 5.72388 8.86165 5.86566 9.08183 5.86566H12.3179C12.8102 5.86566 13.0149 6.49566 12.6166 6.78504L9.99859 8.68715C9.82046 8.81656 9.74593 9.04596 9.81396 9.25536L10.814 12.333C10.9661 12.8013 10.4302 13.1906 10.0319 12.9012L7.41386 10.9991C7.23574 10.8697 6.99454 10.8697 6.81641 10.9991L4.19839 12.9012C3.80009 13.1906 3.26418 12.8013 3.41631 12.333L4.41631 9.25536C4.48435 9.04596 4.40981 8.81656 4.23169 8.68715L1.61367 6.78504C1.21536 6.49566 1.42006 5.86566 1.91239 5.86566H5.14844C5.36862 5.86566 5.56375 5.72388 5.63179 5.51448L6.63179 2.43682Z" fill="#384C43"/>
</svg>
